<?xml version="1.0" encoding="utf-8"?>
<svg viewBox="0 0 500 500" xmlns="http://www.w3.org/2000/svg">
  <g transform="matrix(0.1000000014901161, 0, 0, -0.1000000014901161, -271.4644470214844, 844.2059326171874)" fill="#000000" stroke="none">
    <path d="M4870 8045 c-277 -34 -590 -137 -815 -268 -252 -146 -432 -299 -628 -532 -128 -153 -193 -253 -272 -418 -106 -220 -159 -394 -195 -637 -67 -454 30 -947 270 -1366 81 -141 134 -212 165 -220 54 -13 125 42 125 96 0 16 -25 64 -66 125 -138 207 -246 475 -301 750 -14 72 -18 138 -17 330 0 266 8 324 79 563 50 166 180 425 286 566 136 183 331 372 499 483 334 223 675 337 1040 350 351 12 634 -44 931 -183 136 -64 159 -65 209 -8 35 41 38 76 9 105 -30 30 -247 133 -354 168 -298 96 -665 133 -965 96z"/>
    <path d="M6479 7669 c-41 -50 -76 -95 -78 -101 -2 -5 65 -75 148 -155 318 -305 516 -632 610 -1012 40 -159 52 -244 55 -396 8 -327 -36 -576 -155 -887 l-42 -108 -75 40 c-41 21 -79 37 -83 35 -20 -13 -199 -277 -193 -286 5 -9 208 -175 320 -262 22 -17 23 -17 46 15 135 188 284 471 342 648 76 233 116 485 116 730 0 186 -10 279 -51 463 -52 237 -146 476 -269 687 -68 116 -216 306 -330 423 -90 94 -241 230 -276 250 -6 3 -44 -34 -85 -84z"/>
    <path d="M4575 7464 c-112 -25 -187 -66 -269 -149 -80 -80 -136 -175 -157 -269 l-12 -54 -76 -22 c-108 -31 -185 -75 -257 -147 -71 -71 -126 -170 -145 -260 -14 -70 -7 -187 16 -266 9 -32 15 -59 13 -61 -185 -120 -269 -292 -255 -519 3 -51 14 -117 26 -149 43 -125 149 -247 261 -301 l66 -32 -17 -55 c-22 -68 -24 -196 -4 -269 58 -219 266 -381 490 -381 59 0 62 -2 104 -44 50 -51 143 -100 221 -117 78 -17 222 -6 295 21 86 32 163 87 219 158 l49 61 27 -37 c38 -54 127 -130 182 -158 185 -94 408 -66 564 70 47 41 53 43 130 49 144 11 258 67 352 173 117 131 162 317 113 473 l-19 61 35 9 c94 26 211 138 268 256 44 92 57 151 58 260 0 183 -77 330 -241 455 l-33 25 22 60 c27 75 36 195 19 267 -28 119 -110 234 -224 312 -54 37 -169 86 -204 86 -31 0 -43 16 -58 80 -46 200 -231 375 -442 419 -184 38 -368 -14 -493 -141 l-60 -61 -67 65 c-37 36 -82 73 -101 83 -113 58 -269 77 -396 49z m237 -202 c150 -54 233 -179 226 -341 l-3 -71 -71 41 c-67 39 -72 44 -88 95 -21 67 -53 94 -112 94 -34 0 -51 -6 -76 -29 -30 -26 -33 -35 -33 -85 0 -50 3 -58 38 -93 34 -36 37 -43 37 -96 0 -70 25 -103 68 -92 15 4 46 9 69 12 56 7 119 -29 151 -85 21 -37 22 -52 22 -222 l0 -183 -46 7 c-26 3 -55 6 -65 6 -13 0 -24 13 -35 40 -9 22 -30 52 -47 66 -26 22 -38 25 -76 21 -64 -7 -91 -40 -91 -111 0 -43 6 -61 29 -93 59 -81 146 -127 265 -139 l66 -7 0 -127 0 -128 -58 24 c-65 26 -146 33 -179 16 -33 -18 -63 -62 -63 -93 0 -75 46 -109 148 -109 55 0 75 -4 96 -21 54 -43 56 -54 56 -366 0 -366 -12 -422 -117 -534 -104 -112 -273 -140 -394 -67 l-33 20 57 18 c148 46 261 168 302 327 39 150 -6 322 -116 438 -57 60 -119 97 -205 121 -82 22 -123 14 -164 -33 -28 -32 -32 -41 -27 -77 4 -29 15 -49 38 -70 28 -25 37 -28 78 -23 58 6 95 -9 142 -59 47 -50 69 -110 69 -182 -1 -109 -49 -189 -137 -229 -48 -22 -63 -24 -127 -18 -64 6 -75 4 -99 -15 -15 -12 -34 -37 -42 -56 -14 -33 -16 -35 -52 -28 -67 11 -117 40 -169 95 -69 74 -98 149 -92 244 5 66 40 175 58 175 4 0 15 -11 23 -24 19 -28 75 -56 112 -56 72 0 134 67 120 131 -10 45 -58 87 -108 94 -37 6 -47 13 -74 53 -39 59 -46 84 -44 149 2 69 -18 108 -64 123 -44 14 -85 1 -115 -38 -23 -28 -28 -130 -9 -195 6 -22 8 -41 5 -45 -13 -12 -89 34 -131 79 -72 77 -89 125 -90 249 0 92 3 111 24 150 41 78 79 118 143 149 53 27 72 31 141 31 77 0 80 1 113 34 46 46 47 99 5 145 -27 29 -34 31 -95 31 l-66 0 -21 42 c-33 64 -36 150 -9 222 32 85 116 169 189 190 90 26 118 21 196 -38 50 -38 92 -46 139 -24 78 35 76 151 -3 192 -34 18 -41 33 -41 94 1 117 110 246 243 287 59 19 163 17 219 -3z m915 -16 c69 -32 147 -106 182 -174 33 -65 25 -182 -12 -182 -8 0 -26 -14 -43 -31 -23 -24 -29 -39 -29 -75 0 -39 5 -50 33 -75 44 -40 83 -38 152 6 73 47 116 58 177 45 181 -41 286 -245 211 -410 l-24 -53 -67 2 c-63 2 -69 0 -97 -28 -22 -21 -30 -39 -30 -65 0 -85 42 -116 157 -116 93 0 141 -19 207 -80 25 -23 58 -68 73 -99 24 -49 27 -68 28 -151 0 -86 -3 -101 -32 -162 -38 -80 -98 -143 -152 -159 -23 -7 -43 -10 -46 -8 -2 3 2 23 10 44 19 53 19 149 0 185 -33 64 -117 76 -166 24 -21 -22 -24 -35 -24 -102 0 -66 -5 -85 -30 -131 -16 -29 -34 -55 -40 -56 -5 -2 -28 -6 -49 -10 -55 -9 -106 -61 -106 -108 0 -19 10 -49 23 -68 43 -64 125 -62 204 6 l41 35 22 -53 c34 -77 38 -185 10 -259 -40 -108 -161 -208 -252 -208 -33 0 -39 4 -51 33 -26 60 -47 70 -130 63 -93 -9 -142 9 -196 71 -98 111 -92 274 14 372 46 42 51 44 123 41 36 -1 47 3 77 33 47 47 49 101 6 149 -27 31 -34 33 -94 33 -53 0 -76 -6 -140 -38 -94 -47 -155 -107 -200 -196 -94 -188 -63 -401 80 -545 60 -60 154 -116 197 -116 47 0 38 -20 -21 -48 -83 -39 -185 -38 -264 1 -95 46 -174 148 -203 262 -13 47 -16 119 -16 343 0 310 1 316 60 366 27 22 41 26 96 26 77 0 116 17 134 59 24 58 -3 117 -68 151 -29 14 -87 6 -164 -25 l-58 -24 0 128 0 128 64 6 c75 7 150 34 200 72 129 98 116 275 -21 275 -52 0 -86 -30 -105 -92 l-11 -38 -64 0 -63 0 0 189 c0 179 1 190 23 222 26 40 102 82 137 76 14 -3 39 -11 57 -18 30 -12 34 -11 58 11 21 20 25 32 25 82 0 54 2 60 40 98 33 33 40 47 40 80 0 79 -41 120 -119 120 -48 0 -85 -32 -102 -89 -14 -48 -24 -58 -103 -101 l-58 -33 4 99 c5 110 15 139 76 206 106 117 263 149 409 84z"/>
    <path d="M4313 6495 c-35 -15 -63 -60 -63 -99 0 -16 15 -42 37 -67 44 -49 64 -115 51 -173 -20 -90 -70 -153 -137 -176 -51 -16 -70 -38 -78 -83 -5 -32 -1 -41 31 -73 34 -34 40 -36 84 -32 64 6 112 31 170 88 88 87 132 191 132 315 0 199 -114 350 -227 300z"/>
    <path d="M5874 6496 c-69 -31 -117 -115 -135 -239 -21 -144 21 -267 131 -377 96 -97 181 -117 246 -57 61 55 44 132 -34 155 -21 7 -51 21 -66 33 -40 32 -86 130 -86 184 0 53 10 77 51 121 38 40 50 82 34 120 -26 61 -84 86 -141 60z"/>
    <path d="M6425 7340 c-24 -9 -59 -48 -68 -73 -5 -13 18 -45 87 -120 200 -219 295 -358 376 -551 157 -370 179 -774 63 -1156 -15 -47 -27 -103 -27 -125 -1 -37 2 -41 38 -59 35 -17 42 -18 64 -5 41 23 60 58 91 169 56 196 66 273 66 530 0 207 -3 249 -23 350 -28 135 -86 315 -142 435 -42 92 -146 258 -213 340 -99 121 -266 279 -289 274 -2 0 -12 -4 -23 -9z"/>
    <path d="M3871 4357 c-31 -15 -63 -75 -55 -102 10 -32 44 -64 134 -125 164 -111 355 -194 565 -248 201 -51 251 -56 527 -57 l256 0 26 24 c19 18 26 34 26 63 0 83 -33 99 -182 91 -135 -7 -362 11 -514 42 -232 47 -427 127 -619 254 -60 39 -115 71 -124 71 -9 0 -27 -6 -40 -13z"/>
  </g>
</svg>